HIERARCHY
ROOT Hips
{
	OFFSET 0.000000 97.167313 0.000000
	CHANNELS 6 Xposition Yposition Zposition Xrotation Yrotation Zrotation
	JOINT Spine
	{
		OFFSET 0.000000 13.784798 0.064400
		CHANNELS 3 Xrotation Yrotation Zrotation
		JOINT Spine1
		{
			OFFSET 0.000000 12.037903 0.404700
			CHANNELS 3 Xrotation Yrotation Zrotation
			JOINT Spine2
			{
				OFFSET 0.000000 17.795601 0.420200
				CHANNELS 3 Xrotation Yrotation Zrotation
				JOINT Neck
				{
					OFFSET 0.000000 39.131302 11.954600
					CHANNELS 3 Xrotation Yrotation Zrotation
					JOINT Head
					{
						OFFSET 0.000000 14.456192 15.627699
						CHANNELS 3 Xrotation Yrotation Zrotation
						JOINT HeadTop_End
						{
							OFFSET 0.000000 15.703506 7.603401
							CHANNELS 3 Xrotation Yrotation Zrotation
							End Site
							{
								OFFSET 0.000000 17.447403 0.000000
							}
						}
					}
				}
				JOINT LeftShoulder
				{
					OFFSET 17.399500 24.608795 1.168800
					CHANNELS 3 Xrotation Yrotation Zrotation
					JOINT LeftArm
					{
						OFFSET 18.980635 5.765305 1.818600
						CHANNELS 3 Xrotation Yrotation Zrotation
						JOINT LeftForeArm
						{
							OFFSET 49.290169 0.000000 0.000000
							CHANNELS 3 Xrotation Yrotation Zrotation
							JOINT LeftHand
							{
								OFFSET 31.562012 0.000000 0.000000
								CHANNELS 3 Xrotation Yrotation Zrotation
								JOINT LeftHandThumb1
								{
									OFFSET 6.133995 -4.388519 7.076070
									CHANNELS 3 Xrotation Yrotation Zrotation
									JOINT LeftHandThumb2
									{
										OFFSET 6.037666 -3.485840 3.485847
										CHANNELS 3 Xrotation Yrotation Zrotation
										JOINT LeftHandThumb3
										{
											OFFSET 6.496506 -3.750763 3.750761
											CHANNELS 3 Xrotation Yrotation Zrotation
											JOINT LeftHandThumb4
											{
												OFFSET 5.616882 -3.242905 3.242910
												CHANNELS 3 Xrotation Yrotation Zrotation
												End Site
												{
													OFFSET -1.254608 7.132141 0.375429
												}
											}
										}
									}
								}
								JOINT LeftHandPinky1
								{
									OFFSET 18.920792 -0.453171 -11.426712
									CHANNELS 3 Xrotation Yrotation Zrotation
									JOINT LeftHandPinky2
									{
										OFFSET 4.919586 0.000000 0.000000
										CHANNELS 3 Xrotation Yrotation Zrotation
										JOINT LeftHandPinky3
										{
											OFFSET 5.233047 0.000000 0.000000
											CHANNELS 3 Xrotation Yrotation Zrotation
											JOINT LeftHandPinky4
											{
												OFFSET 5.571716 0.000000 0.000000
												CHANNELS 3 Xrotation Yrotation Zrotation
												End Site
												{
													OFFSET -3.459808 4.342407 -0.466164
												}
											}
										}
									}
								}
								JOINT LeftHandRing1
								{
									OFFSET 22.726120 -0.094986 -6.500475
									CHANNELS 3 Xrotation Yrotation Zrotation
									JOINT LeftHandRing2
									{
										OFFSET 6.408615 0.000000 0.000000
										CHANNELS 3 Xrotation Yrotation Zrotation
										JOINT LeftHandRing3
										{
											OFFSET 6.150223 0.000000 0.000000
											CHANNELS 3 Xrotation Yrotation Zrotation
											JOINT LeftHandRing4
											{
												OFFSET 6.145386 0.000000 0.000000
												CHANNELS 3 Xrotation Yrotation Zrotation
												End Site
												{
													OFFSET -3.671402 4.923981 -0.202372
												}
											}
										}
									}
								}
								JOINT LeftHandMiddle1
								{
									OFFSET 23.373947 0.000000 0.000001
									CHANNELS 3 Xrotation Yrotation Zrotation
									JOINT LeftHandMiddle2
									{
										OFFSET 6.996567 0.000000 0.000000
										CHANNELS 3 Xrotation Yrotation Zrotation
										JOINT LeftHandMiddle3
										{
											OFFSET 7.015945 0.000000 0.000000
											CHANNELS 3 Xrotation Yrotation Zrotation
											JOINT LeftHandMiddle4
											{
												OFFSET 7.721573 0.000000 0.000000
												CHANNELS 3 Xrotation Yrotation Zrotation
												End Site
												{
													OFFSET -4.651108 6.158463 0.251582
												}
											}
										}
									}
								}
								JOINT LeftHandIndex1
								{
									OFFSET 21.310577 -0.490082 6.209344
									CHANNELS 3 Xrotation Yrotation Zrotation
									JOINT LeftHandIndex2
									{
										OFFSET 7.536453 0.000000 0.000000
										CHANNELS 3 Xrotation Yrotation Zrotation
										JOINT LeftHandIndex3
										{
											OFFSET 7.512344 0.000000 0.000000
											CHANNELS 3 Xrotation Yrotation Zrotation
											JOINT LeftHandIndex4
											{
												OFFSET 10.212402 0.000000 0.000001
												CHANNELS 3 Xrotation Yrotation Zrotation
												End Site
												{
													OFFSET -5.180801 8.690506 1.388433
												}
											}
										}
									}
								}
							}
						}
					}
				}
				JOINT RightShoulder
				{
					OFFSET -17.399500 24.608795 1.168800
					CHANNELS 3 Xrotation Yrotation Zrotation
					JOINT RightArm
					{
						OFFSET -18.980635 5.765305 1.818600
						CHANNELS 3 Xrotation Yrotation Zrotation
						JOINT RightForeArm
						{
							OFFSET -49.290169 0.000000 0.000000
							CHANNELS 3 Xrotation Yrotation Zrotation
							JOINT RightHand
							{
								OFFSET -31.562012 0.000000 0.000000
								CHANNELS 3 Xrotation Yrotation Zrotation
								JOINT RightHandThumb1
								{
									OFFSET -6.133995 -4.388519 7.076070
									CHANNELS 3 Xrotation Yrotation Zrotation
									JOINT RightHandThumb2
									{
										OFFSET -6.037666 -3.485840 3.485847
										CHANNELS 3 Xrotation Yrotation Zrotation
										JOINT RightHandThumb3
										{
											OFFSET -6.496506 -3.750763 3.750761
											CHANNELS 3 Xrotation Yrotation Zrotation
											JOINT RightHandThumb4
											{
												OFFSET -5.616882 -3.242905 3.242910
												CHANNELS 3 Xrotation Yrotation Zrotation
												End Site
												{
													OFFSET 1.254608 7.132141 0.375429
												}
											}
										}
									}
								}
								JOINT RightHandIndex1
								{
									OFFSET -21.310577 -0.490082 6.209344
									CHANNELS 3 Xrotation Yrotation Zrotation
									JOINT RightHandIndex2
									{
										OFFSET -7.536453 0.000000 0.000000
										CHANNELS 3 Xrotation Yrotation Zrotation
										JOINT RightHandIndex3
										{
											OFFSET -7.512344 0.000000 0.000000
											CHANNELS 3 Xrotation Yrotation Zrotation
											JOINT RightHandIndex4
											{
												OFFSET -10.212402 0.000000 0.000001
												CHANNELS 3 Xrotation Yrotation Zrotation
												End Site
												{
													OFFSET 5.180801 8.690506 1.388433
												}
											}
										}
									}
								}
								JOINT RightHandMiddle1
								{
									OFFSET -23.373947 0.000000 0.000001
									CHANNELS 3 Xrotation Yrotation Zrotation
									JOINT RightHandMiddle2
									{
										OFFSET -6.996567 0.000000 0.000000
										CHANNELS 3 Xrotation Yrotation Zrotation
										JOINT RightHandMiddle3
										{
											OFFSET -7.015945 0.000000 0.000000
											CHANNELS 3 Xrotation Yrotation Zrotation
											JOINT RightHandMiddle4
											{
												OFFSET -7.721573 0.000000 0.000000
												CHANNELS 3 Xrotation Yrotation Zrotation
												End Site
												{
													OFFSET 4.651108 6.158463 0.251582
												}
											}
										}
									}
								}
								JOINT RightHandRing1
								{
									OFFSET -22.726120 -0.094986 -6.500475
									CHANNELS 3 Xrotation Yrotation Zrotation
									JOINT RightHandRing2
									{
										OFFSET -6.408615 0.000000 0.000000
										CHANNELS 3 Xrotation Yrotation Zrotation
										JOINT RightHandRing3
										{
											OFFSET -6.150223 0.000000 0.000000
											CHANNELS 3 Xrotation Yrotation Zrotation
											JOINT RightHandRing4
											{
												OFFSET -6.145386 0.000000 0.000000
												CHANNELS 3 Xrotation Yrotation Zrotation
												End Site
												{
													OFFSET 3.671402 4.923981 -0.202372
												}
											}
										}
									}
								}
								JOINT RightHandPinky1
								{
									OFFSET -18.920792 -0.453171 -11.426712
									CHANNELS 3 Xrotation Yrotation Zrotation
									JOINT RightHandPinky2
									{
										OFFSET -4.919586 0.000000 0.000000
										CHANNELS 3 Xrotation Yrotation Zrotation
										JOINT RightHandPinky3
										{
											OFFSET -5.233047 0.000000 0.000000
											CHANNELS 3 Xrotation Yrotation Zrotation
											JOINT RightHandPinky4
											{
												OFFSET -5.571716 0.000000 0.000000
												CHANNELS 3 Xrotation Yrotation Zrotation
												End Site
												{
													OFFSET 3.459808 4.342407 -0.466164
												}
											}
										}
									}
								}
							}
						}
					}
				}
			}
		}
	}
	JOINT LeftUpLeg
	{
		OFFSET 19.899099 -7.885101 -3.429500
		CHANNELS 3 Xrotation Yrotation Zrotation
		JOINT LeftLeg
		{
			OFFSET 1.745560 -36.997807 10.304700
			CHANNELS 3 Xrotation Yrotation Zrotation
			JOINT LeftFoot
			{
				OFFSET -1.745558 -29.803308 -13.615400
				CHANNELS 3 Xrotation Yrotation Zrotation
				JOINT LeftToeBase
				{
					OFFSET 1.181900 -18.539904 15.226099
					CHANNELS 3 Xrotation Yrotation Zrotation
					JOINT LeftToe_End
					{
						OFFSET -0.863701 1.402801 16.534700
						CHANNELS 3 Xrotation Yrotation Zrotation
						End Site
						{
							OFFSET 0.000000 16.616566 0.000000
						}
					}
				}
			}
		}
	}
	JOINT RightUpLeg
	{
		OFFSET -19.899099 -7.885101 -3.429500
		CHANNELS 3 Xrotation Yrotation Zrotation
		JOINT RightLeg
		{
			OFFSET -1.745560 -36.997807 10.304700
			CHANNELS 3 Xrotation Yrotation Zrotation
			JOINT RightFoot
			{
				OFFSET 1.745558 -29.803308 -13.615400
				CHANNELS 3 Xrotation Yrotation Zrotation
				JOINT RightToeBase
				{
					OFFSET -1.181900 -18.539904 15.226099
					CHANNELS 3 Xrotation Yrotation Zrotation
					JOINT RightToe_End
					{
						OFFSET 0.863701 1.402801 16.534700
						CHANNELS 3 Xrotation Yrotation Zrotation
						End Site
						{
							OFFSET 0.000000 16.616566 0.000000
						}
					}
				}
			}
		}
	}
}
MOTION
Frames: 6
Frame Time: 0.033333
1.208476 61.749077 1.990620 17.154022 -20.695786 -0.851678 11.283501 16.702896 -10.299513 2.869507 4.087945 -0.126406 2.861617 4.310711 -0.310951 -0.688856 -2.356465 4.369680 -6.951128 -9.322003 11.106342 0.000002 -0.000000 -0.000000 1.124717 -1.331172 -15.116530 -9.590831 31.513226 -40.008407 0.000007 -10.721319 -0.000005 15.668215 -19.583481 20.990303 -5.456659 -6.701462 3.223875 8.076471 27.604717 1.107974 -10.023976 -14.017042 7.739144 -0.000001 -0.000002 -0.000001 0.227851 4.390391 -33.117835 0.780420 2.923314 -29.888659 0.780018 2.922618 -29.880848 -0.000000 0.000002 -0.000004 0.040951 3.671121 -26.110912 0.502184 2.375022 -23.874330 0.587676 2.559328 -25.860503 0.000000 -0.000001 0.000005 -1.264328 -0.680470 -18.650050 0.387944 2.098222 -20.947910 0.466474 2.292739 -22.997828 0.000002 -0.000001 0.000006 -1.866390 -6.065076 -12.588956 0.237186 1.651684 -16.342783 0.250127 1.695194 -16.786201 -0.000005 0.000001 0.000001 2.870346 11.957089 -6.152311 -33.803689 70.877542 6.927831 -0.000323 94.709575 0.000350 17.109972 20.456662 -11.102033 -15.317662 26.926143 4.001147 9.853814 -45.621344 -5.481606 -7.055999 3.101056 -14.195996 0.000000 -0.000003 0.000004 0.530848 -4.798251 13.845700 0.169905 -1.247744 15.507861 0.169737 -1.247134 15.500185 -0.000001 -0.000001 0.000001 1.576768 -6.016273 32.822266 0.816453 -2.636006 34.413649 0.910235 -2.767790 36.402846 -0.000002 0.000002 -0.000001 2.347856 -6.542678 43.827411 1.218019 -3.142180 42.367861 1.329184 -3.259706 44.358462 -0.000000 0.000000 -0.000007 3.141876 -6.899789 54.104971 1.765791 -3.652464 51.591438 1.765232 -3.652024 51.582678 0.000001 0.000001 0.000002 -92.514209 -0.550525 0.017358 42.533490 13.575325 1.608370 25.064716 26.175998 13.911337 -4.490268 -0.000004 -0.000004 0.000001 0.000000 0.000000 31.733650 -5.130145 5.995755 26.744893 -6.699192 10.137517 -33.030443 -18.771154 14.514371 -42.278280 -0.000020 0.000001 -0.000000 -0.000000 -0.000001 
0.119298 62.206520 2.689747 18.140725 -20.225513 -0.085952 11.213570 16.226772 -10.401670 2.848270 4.056028 -0.339465 2.835636 4.199232 -0.636740 -0.659703 -2.298500 4.276211 -7.305503 -9.103021 10.803147 0.000000 0.000001 -0.000000 1.093845 -1.525828 -16.053672 -10.103713 30.450561 -38.535692 0.000001 -10.581400 -0.000002 16.562060 -18.994459 23.619585 -5.456662 -6.701464 3.223877 8.119698 27.877419 1.123189 -9.726817 -12.914474 8.109808 0.000000 -0.000000 0.000000 0.272145 4.510612 -34.334593 0.853873 3.047387 -31.299052 0.781789 2.925702 -29.915542 -0.000000 0.000000 -0.000002 0.069905 3.795168 -27.323429 0.560958 2.503509 -25.255463 0.619723 2.624341 -26.569127 -0.000003 0.000002 0.000005 -1.321431 -0.515921 -19.842295 0.440411 2.230378 -22.337287 0.495243 2.359316 -23.706649 0.000001 0.000001 0.000004 -1.835027 -5.894331 -13.780083 0.278554 1.786694 -17.721923 0.270485 1.761227 -17.461044 -0.000001 0.000002 -0.000001 3.407518 11.933167 -5.529510 -36.038353 68.748156 8.771284 -0.000139 95.506972 0.000169 18.119887 20.328234 -11.652623 -14.760606 26.047761 3.550543 9.772904 -44.837897 -5.312397 -7.100280 3.474178 -13.969683 0.000000 -0.000000 -0.000004 0.393721 -4.262561 13.599812 0.167461 -1.238903 15.395231 0.169449 -1.246096 15.486923 -0.000001 0.000000 0.000004 1.357800 -5.708568 31.979277 0.780965 -2.583494 33.634153 0.876841 -2.721965 35.705463 0.000001 0.000001 -0.000004 2.182255 -6.402908 42.829654 1.163040 -3.080916 41.354958 1.276483 -3.205007 43.423826 -0.000000 -0.000000 -0.000003 2.941820 -6.786975 52.954224 1.692336 -3.593118 50.428987 1.701408 -3.600599 50.573763 0.000001 -0.000001 0.000004 -92.727051 -0.935111 0.205260 43.310790 13.517132 1.514289 24.476360 25.877862 12.520970 -4.489990 0.000006 0.000006 -0.000000 0.000001 0.000000 27.739811 -5.566966 4.120729 29.372805 -3.500560 10.274824 -28.005760 -17.949396 17.396190 -44.100558 0.000005 0.000003 0.000000 -0.000002 -0.000000 
-1.822957 63.755882 4.608334 20.394190 -19.355240 1.486848 11.020872 15.357735 -10.534342 2.796409 3.977354 -0.835280 2.771864 3.931800 -1.405734 -0.589998 -2.162685 4.056515 -8.126337 -8.583777 10.091730 0.000002 0.000000 -0.000000 0.999847 -1.972886 -18.218471 -11.375289 27.866286 -35.193865 0.000008 -10.284350 -0.000002 18.571165 -17.444660 29.703475 -5.456662 -6.701464 3.223876 8.221479 28.518608 1.158071 -9.062169 -10.320577 8.948540 -0.000001 0.000002 -0.000002 0.386668 4.789948 -37.198003 1.038719 3.332018 -34.620094 0.786203 2.933350 -30.001845 -0.000000 -0.000001 -0.000004 0.148594 4.084770 -30.176291 0.711275 2.799741 -28.503793 0.698443 2.776012 -28.239979 -0.000002 0.000003 0.000003 -1.440980 -0.125049 -22.644766 0.576308 2.535760 -25.604805 0.566322 2.514846 -25.378027 0.000001 -0.000002 0.000004 -1.747464 -5.512708 -16.582593 0.388583 2.099896 -20.965255 0.321393 1.915493 -19.047832 -0.000000 0.000003 0.000002 4.670885 11.941799 -4.076684 -40.083911 63.684602 11.650463 -0.000134 97.286783 0.000157 20.290323 20.022052 -12.865435 -13.503545 23.961045 2.547802 9.584629 -42.998073 -4.911805 -7.208841 4.363746 -13.434726 -0.000000 0.000000 0.000002 0.091245 -3.000424 13.014306 0.161434 -1.216795 15.113892 0.168591 -1.242987 15.447374 -0.000002 -0.000003 -0.000002 0.877607 -4.964672 29.995705 0.699852 -2.457332 31.789889 0.800391 -2.612429 34.062727 0.000000 -0.000001 -0.000004 1.809863 -6.057355 40.478997 1.037612 -2.932479 38.963985 1.156066 -3.072982 41.224993 -0.000001 -0.000001 -0.000002 2.487743 -6.498266 50.244948 1.523977 -3.447342 47.687517 1.555487 -3.475724 48.209435 0.000001 0.000001 0.000004 -92.315239 -1.680430 0.378184 44.409002 13.818257 1.454691 22.519658 25.132251 9.819770 -4.490087 0.000013 -0.000002 0.000000 0.000001 0.000000 24.267199 -5.117927 3.024489 27.153163 -3.877840 8.803976 -18.972196 -15.274227 22.028846 -48.134204 0.000002 -0.000008 0.000000 -0.000001 0.000000 
-3.995507 65.661491 7.041494 22.916282 -18.447788 3.094776 10.774819 14.425786 -10.640712 2.731928 3.877703 -1.398852 2.692786 3.609291 -2.305619 -0.506630 -2.006171 3.801620 -9.055209 -7.974785 9.266777 0.000001 0.000000 -0.000001 0.858718 -2.461460 -20.643381 -13.002150 24.702988 -31.577003 0.000020 -10.014106 -0.000014 20.722007 -15.357016 36.572367 -5.456655 -6.701461 3.223878 8.339861 29.262887 1.197037 -8.346887 -7.311677 9.868369 -0.000002 -0.000001 0.000001 0.537934 5.107756 -40.527283 1.274174 3.649017 -38.485992 0.791902 2.943181 -30.113102 0.000002 0.000002 -0.000005 0.258675 4.416760 -33.492072 0.906535 3.132232 -32.275950 0.795874 2.950012 -30.190348 0.000000 0.000000 -0.000000 -1.553699 0.334436 -25.896664 0.755637 2.879840 -29.399214 0.654990 2.693619 -27.329154 0.000001 -0.000000 -0.000003 -1.624294 -5.105613 -19.839285 0.538273 2.454903 -24.731201 0.385830 2.092694 -20.889970 0.000000 -0.000000 0.000001 6.133201 12.068530 -2.421780 -43.589639 57.772691 13.378675 -0.000107 99.130517 0.000120 22.342928 19.707712 -14.095014 -12.130086 21.502726 1.476931 9.368938 -40.867528 -4.443159 -7.344375 5.424971 -12.807201 0.000001 -0.000001 -0.000001 -0.223369 -1.532168 12.312954 0.153772 -1.188070 14.748711 0.167169 -1.237853 15.381875 -0.000000 -0.000001 0.000001 0.383054 -4.068445 27.684678 0.609755 -2.305754 29.621916 0.715301 -2.482067 32.148389 -0.000000 0.000001 -0.000004 1.409029 -5.628066 37.737536 0.898837 -2.752273 36.166074 1.022580 -2.913824 38.669362 0.000001 0.000001 -0.000008 1.991741 -6.123620 47.090029 1.336426 -3.267080 44.485736 1.393763 -3.324364 45.483128 -0.000000 -0.000001 -0.000001 -91.373581 -2.525276 0.670235 45.440658 14.170763 1.368334 19.946601 24.369323 6.846215 -4.490876 -0.000001 0.000004 -0.000000 -0.000001 -0.000000 20.795156 -5.052542 3.028170 23.774026 -5.337693 6.797303 -10.008785 -9.715670 22.372107 -55.050290 -0.073855 1.145345 -0.000000 0.000002 -0.000000 
-5.887575 67.021355 9.368435 24.958778 -17.841301 4.123121 10.539715 13.650460 -10.773492 2.666833 3.769995 -1.848266 2.619932 3.301354 -3.097348 -0.430696 -1.875556 3.583595 -9.812131 -7.457033 8.548749 0.000001 0.000000 -0.000000 0.736539 -2.778809 -22.483589 -14.797523 21.816306 -28.949955 0.000005 -9.990100 0.000017 22.444557 -13.264836 42.187650 -5.456664 -6.701466 3.223880 8.441376 29.899887 1.229214 -7.785371 -4.765887 10.606557 -0.000001 0.000001 0.000000 0.684827 5.375666 -43.388739 1.494062 3.909093 -41.821409 0.798390 2.954335 -30.239256 -0.000002 0.000005 -0.000000 0.370405 4.698789 -36.339157 1.090781 3.406068 -35.505970 0.885519 3.098762 -31.889330 0.000000 -0.000000 0.000005 -1.627735 0.731416 -28.679233 0.926974 3.164331 -32.648233 0.737154 2.846829 -29.029223 0.000001 0.000000 0.000006 -1.503443 -4.788666 -22.629839 0.684730 2.750363 -27.955642 0.445456 2.242613 -22.466693 -0.000001 0.000006 0.000000 7.367981 12.306194 -1.094740 -46.039491 52.643570 14.134988 -0.000196 100.090883 0.000258 22.844818 19.732338 -14.701163 -11.017494 19.362563 0.630747 9.186913 -39.057815 -4.044186 -7.479857 6.412727 -12.254057 0.000001 -0.000001 0.000002 -0.454990 -0.281285 11.632165 0.145184 -1.154971 14.328735 0.164792 -1.229176 15.271398 -0.000001 -0.000003 -0.000002 0.018211 -3.280967 25.657368 0.534326 -2.167825 27.689392 0.645065 -2.366731 30.488103 0.000001 -0.000000 -0.000004 1.094742 -5.239137 35.343671 0.784236 -2.588397 33.706635 0.913536 -2.772244 36.471069 -0.000000 -0.000000 0.000000 1.596981 -5.772219 44.349740 1.181010 -3.101183 41.688258 1.263873 -3.191661 43.197897 0.000001 -0.000001 0.000000 -90.732486 -3.178962 1.187583 46.948760 14.111958 1.206695 17.260996 23.939576 4.467882 -4.491031 -0.000001 0.000003 0.000000 0.000001 0.000000 16.005140 -6.525552 3.016033 22.600604 -3.192398 6.166970 -0.955647 -2.410866 17.127171 -65.296055 0.269953 -1.020416 -0.000000 -0.000001 -0.000000 
-7.778455 67.238052 11.411781 26.859990 -17.584612 4.627079 10.484807 12.715992 -11.220700 2.619843 3.605682 -2.090000 2.571660 3.061960 -3.561371 -0.354213 -1.750566 3.372113 -10.522079 -6.953569 7.846832 -0.000000 -0.000000 -0.000000 0.672551 -2.880027 -23.872505 -16.717223 19.815924 -28.087107 0.000008 -10.220864 -0.000001 24.158785 -10.493004 47.406577 -5.456659 -6.701464 3.223878 8.541192 30.524778 1.259775 -7.274357 -2.289122 11.293382 0.000004 0.000001 -0.000001 0.845546 5.634552 -46.204935 1.725545 4.152689 -45.113294 0.805922 2.967214 -30.385299 -0.000002 -0.000001 -0.000006 0.496727 4.973494 -39.139214 1.286301 3.664186 -38.676219 0.978929 3.243857 -33.577657 -0.000000 -0.000004 0.000005 -1.680160 1.123092 -31.408734 1.110519 3.433526 -35.836985 0.823283 2.996590 -30.718933 -0.000000 0.000000 0.000008 -1.373680 -4.506490 -25.370511 0.844390 3.031759 -31.120138 0.507967 2.388041 -24.013734 -0.000001 0.000005 -0.000001 8.583652 12.528132 -0.605362 -49.202009 47.336527 15.631665 0.000014 99.791693 0.000001 21.473893 20.441049 -14.001486 -9.992818 17.263776 -0.129712 9.011877 -37.310164 -3.656892 -7.623765 7.411823 -11.708091 -0.000000 0.000000 -0.000000 -0.646176 0.931005 10.930020 0.135963 -1.118254 13.863892 0.161866 -1.218413 15.134413 0.000001 0.000000 0.000001 -0.283852 -2.498947 23.666872 0.464184 -2.028653 25.773888 0.579670 -2.252064 28.865342 0.000000 0.000001 -0.000009 0.816503 -4.843615 32.997788 0.678414 -2.422421 31.286170 0.812748 -2.630593 34.332861 -0.000000 -0.000001 -0.000003 1.241826 -5.405237 41.672169 1.036548 -2.931185 38.943406 1.144374 -3.059619 41.006530 0.000000 -0.000001 -0.000001 -91.659254 -3.832733 2.370175 50.049191 13.636355 0.888829 14.505872 23.458507 2.467108 -4.487399 0.000006 -0.000002 0.000000 -0.000001 0.000000 8.709162 -9.523188 0.683718 22.048909 6.610557 7.887729 16.256692 3.355673 17.016617 -82.521758 3.850801 -3.486843 -0.000000 -0.000002 0.000000 
